<svg width="19" height="19" viewBox="0 0 19 19" fill="none" xmlns="http://www.w3.org/2000/svg">
<path d="M8.1499 2.41777H4.6499C3.24977 2.41777 2.54971 2.41777 2.01493 2.69025C1.54452 2.92994 1.16207 3.31239 0.922386 3.78279C0.649902 4.31757 0.649902 5.01764 0.649902 6.41777V13.4178C0.649902 14.8179 0.649902 15.518 0.922386 16.0527C1.16207 16.5232 1.54452 16.9056 2.01493 17.1453C2.54971 17.4178 3.24977 17.4178 4.6499 17.4178H11.6499C13.05 17.4178 13.7501 17.4178 14.2849 17.1453C14.7553 16.9056 15.1377 16.5232 15.3774 16.0527C15.6499 15.518 15.6499 14.8179 15.6499 13.4178V9.91777M5.64988 12.4178H7.04533C7.45298 12.4178 7.65681 12.4178 7.84862 12.3717C8.01868 12.3309 8.18126 12.2636 8.33038 12.1722C8.49857 12.0691 8.6427 11.925 8.93095 11.6367L16.8999 3.66777C17.5903 2.97741 17.5903 1.85812 16.8999 1.16777C16.2095 0.477413 15.0903 0.477412 14.3999 1.16777L6.43093 9.13672C6.14268 9.42497 5.99855 9.5691 5.89548 9.73729C5.8041 9.88642 5.73676 10.049 5.69593 10.2191C5.64988 10.4109 5.64988 10.6147 5.64988 11.0223V12.4178Z" stroke="#FFC300" stroke-width="1.3" stroke-linecap="round" stroke-linejoin="round"/>
</svg>
